<?xml version="1.0" encoding="UTF-8"?>
<svg width="24" height="24" version="1.1" viewBox="0 0 24 24" xmlns="http://www.w3.org/2000/svg">
 <path d="m5.5674 15.562c0.2065 0.18333 0.22528 0.49936 0.04195 0.70586s-0.49936 0.22528-0.70586 0.04195c-1.2682-1.1259-2.2533-2.5396-2.8697-4.1292-0.045092-0.11629-0.045092-0.24524 0-0.36153 2.0575-5.3061 7.9089-8.0625 13.293-6.294 0.26235 0.086169 0.40518 0.3687 0.31901 0.63106-0.086169 0.26235-0.3687 0.40518-0.63106 0.31901-4.8184-1.5826-10.05 0.83353-11.977 5.5246 0.56202 1.3674 1.4278 2.5845 2.5291 3.5622zm7.0523-7.5144c0.27285 0.042484 0.45961 0.29812 0.41712 0.57097-0.042484 0.27285-0.29812 0.45961-0.57097 0.41712-0.15302-0.023825-0.3086-0.035886-0.46589-0.035886-1.6569 0-3 1.3431-3 3 0 0.15562 0.011806 0.30957 0.035131 0.46101 0.042034 0.27292-0.14514 0.52825-0.41806 0.57028-0.27292 0.042034-0.52825-0.14514-0.57028-0.41806-0.031076-0.20177-0.046785-0.40661-0.046785-0.61323 0-2.2091 1.7909-4 4-4 0.20885 0 0.41586 0.016048 0.61973 0.047791zm-1.1638 7.9155c-0.27362-0.037257-0.46523-0.28927-0.42797-0.56289 0.037257-0.27362 0.28927-0.46523 0.56289-0.42797 0.13471 0.018343 0.27129 0.027612 0.40918 0.027612 1.6569 0 3-1.3431 3-3 0-0.12156-0.0072037-0.24211-0.021479-0.36126-0.032849-0.27418 0.16279-0.52308 0.43697-0.55593s0.52308 0.16279 0.55593 0.43697c0.019002 0.15861 0.02858 0.31888 0.02858 0.48022 0 2.2091-1.7909 4-4 4-0.18305 0-0.36471-0.012328-0.5441-0.036755zm-7.6023 4.8903c-0.19526 0.19526-0.51184 0.19526-0.70711 0-0.19526-0.19526-0.19526-0.51184 0-0.70711l17-17c0.19526-0.19526 0.51184-0.19526 0.70711 0 0.19526 0.19526 0.19526 0.51184 0 0.70711l-17 17zm14.579-12.416c-0.2065-0.18333-0.22528-0.49936-0.04195-0.70586s0.49936-0.22528 0.70586-0.04195c1.2682 1.1259 2.2533 2.5396 2.8697 4.1292 0.045092 0.11629 0.045092 0.24524 0 0.36153-2.0575 5.3061-7.9089 8.0625-13.293 6.294-0.26235-0.086169-0.40518-0.3687-0.31901-0.63106 0.086169-0.26235 0.3687-0.40518 0.63106-0.31901 4.8184 1.5826 10.05-0.83353 11.977-5.5246-0.56202-1.3674-1.4278-2.5845-2.5291-3.5622z"/>
</svg>
