<?xml version="1.0" encoding="UTF-8"?>
<svg width="14" height="9" version="1.1" viewBox="0 0 3.7042 2.3812" xmlns="http://www.w3.org/2000/svg"><defs><linearGradient id="linearGradient946" x1="-82.748" x2="-79.044" y1="-104.87" y2="-104.87" gradientUnits="userSpaceOnUse"><stop stop-color="#8dbdf0" offset="0"/><stop stop-color="#8dbdf0" stop-opacity="0" offset="1"/></linearGradient></defs><g transform="translate(-79.044 -103.68)"><rect transform="scale(-1)" x="-82.627" y="-105.94" width="3.4618" height="2.1388" fill="url(#linearGradient946)" opacity=".87" stroke="#4d4d4d" stroke-width=".24241"/><rect x="81.69" y="104.21" width=".52917" height=".52917" fill="#f00" opacity=".569" stroke-width=".26234"/><path d="m79.621 104.68c0.16704-0.10023 0.18375-0.13364 0.18375-0.13364l0.12528 0.0585 0.0167 0.0418 0.1754 0.0167 0.06682-0.0668s0.0084-0.0334 0.09187-0.0167c0.08352 0.0167 0.22551 0.0251 0.23386 0.0585 0.0084 0.0334 0 8e-3 0.02506 0.0418 0.02506 0.0334 0.07517 0.0501 0.07517 0.0501l0.10858-0.0835v-0.0835" fill="#64a1e5" stroke="#64a1e5" stroke-width=".26458px"/><path d="m79.604 105.16c0.1754-0.0334 0.21716 0.0167 0.21716 0.0167s0.10023 8e-3 0.12946-8e-3c0.02923-0.0167 0.10023-0.0626 0.10023-0.0626s0.08352 0.0376 0.10023 0.0585c0.01671 0.0209 0.05847 0.0459 0.05847 0.0459s0.03341 0.0209 0.05846 0.0209c0.02506 0 0.0877 0.0209 0.0877 0.0209l0.04594-0.0334h0.06264 0.11275l0.03759-0.0459-0.03341-0.0919" fill="#64a1e5" stroke="#64a1e5" stroke-width=".26458px"/></g></svg>